<?xml version="1.0" encoding="utf-8"?>
<!-- Svg Vector Icons : http://www.onlinewebfonts.com/icon -->
<!DOCTYPE svg PUBLIC "-//W3C//DTD SVG 1.1//EN" "http://www.w3.org/Graphics/SVG/1.1/DTD/svg11.dtd">
<svg version="1.1" xmlns="http://www.w3.org/2000/svg" xmlns:xlink="http://www.w3.org/1999/xlink" x="0px" y="0px" viewBox="0 0 256 256" enable-background="new 0 0 256 256" xml:space="preserve">
<metadata> Svg Vector Icons : http://www.onlinewebfonts.com/icon </metadata>
<g><g><g><path fill="#000000" d="M231.4,100.1c-0.2-0.2-0.3-0.4-0.5-0.5l-8.3-8c6.9-1.6,14.2-7.3,14.2-13.2c0-6.9-9.5-9.3-17.7-9.3c-8.5,0-9.5,5.8-9.6,9.9l-21.3-20.6c-4.3-4.3-12.6-7.7-18.7-7.7H128l0,0H86.4c-6.1,0-14.4,3.4-18.7,7.7L46.4,79c-0.1-4.1-1.1-9.9-9.6-9.9c-8.1,0-17.7,2.4-17.7,9.3c0,5.9,7.4,11.6,14.3,13.2l-8.3,8c-0.2,0.2-0.3,0.4-0.5,0.5c-8.9,7.6-14.6,21.6-14.6,31.8v30.2c0,7.3,2.9,14,7.6,19v11.7c0,6.9,5.7,12.5,12.8,12.5h15.5c7.1,0,12.8-5.6,12.8-12.5v-3H128l0,0h69.4v3c0,6.9,5.7,12.5,12.8,12.5h15.5c7.1,0,12.8-5.6,12.8-12.5V181c4.7-5,7.6-11.6,7.6-19v-30.2C246,121.7,240.2,107.6,231.4,100.1z M75.6,67.6c3-2.5,8.3-4.4,10.9-4.4H128l0,0h41.6c2.6,0,7.9,1.9,10.9,4.4l28,27.1H128l0,0H47.6L75.6,67.6z M19.6,127.3c0-7.4,5.8-13.5,13-13.5s30.7,13.8,30.7,21.2c0,7.4-23.5,5.7-30.7,5.7C25.4,140.7,19.6,134.7,19.6,127.3z M58.7,176.5h-2.5h-2.5l-14.7,0c-4.1-1.3-7-2.7-9-4.4c-1-0.8-1.8-1.6-2.4-2.5c-0.6-0.8-1.1-1.7-1.4-2.5c-1.8-5.2,2-9.9,2-9.9h25.1L70,176.5L58.7,176.5L58.7,176.5z M164.1,176.5H128l0,0H91.9c-7.5,0-13.6-6.1-13.6-13.6H128l0,0h49.8C177.8,170.4,171.6,176.5,164.1,176.5z M167.3,153.6H128l0,0H88.7c-8.2,0-14.8-10.1-14.8-22.5H128l0,0h54.1C182.1,143.5,175.5,153.6,167.3,153.6z M229.8,167.2c-0.3,0.8-0.7,1.7-1.4,2.5c-0.6,0.8-1.4,1.7-2.4,2.5c-2,1.6-4.9,3.1-9,4.4l-14.7,0h-2.5h-2.5H186l16.8-19.2h25.1C227.9,157.3,231.7,162,229.8,167.2z M223.4,140.7c-7.2,0-30.7,1.7-30.7-5.7s23.5-21.2,30.7-21.2c7.2,0,13,6,13,13.5C236.4,134.7,230.6,140.7,223.4,140.7z"/></g><g></g><g></g><g></g><g></g><g></g><g></g><g></g><g></g><g></g><g></g><g></g><g></g><g></g><g></g><g></g></g></g>
</svg>