<?xml version="1.0" standalone="no"?>
<!DOCTYPE svg PUBLIC "-//W3C//DTD SVG 20010904//EN"
 "http://www.w3.org/TR/2001/REC-SVG-20010904/DTD/svg10.dtd">
<svg version="1.0" xmlns="http://www.w3.org/2000/svg"
 width="507.000000pt" height="169.000000pt" viewBox="0 0 507.000000 169.000000"
 preserveAspectRatio="xMidYMid meet">
<metadata>
Created by potrace 1.16, written by Peter Selinger 2001-2019
</metadata>
<g transform="translate(0.000000,169.000000) scale(0.100000,-0.100000)"
fill="#000000" stroke="none">
<path d="M1850 1574 c-60 -4 -201 -22 -275 -35 -172 -30 -317 -70 -742 -205
-74 -24 -284 -64 -332 -64 -26 0 -52 -5 -59 -12 -14 -14 -16 -106 -3 -126 5
-8 17 -12 27 -10 14 2 20 13 22 44 l3 41 62 7 c34 3 171 9 304 13 294 7 512
-10 673 -55 59 -16 108 -18 122 -4 5 5 3 13 -4 19 -27 21 -258 73 -368 82 -63
6 -157 15 -208 21 -52 5 -106 7 -120 4 -55 -11 4 14 126 55 203 67 484 129
468 103 -5 -8 -80 -27 -141 -35 -11 -2 -35 -11 -53 -21 l-33 -17 20 -32 c24
-38 51 -48 51 -19 0 17 14 24 95 42 215 49 442 80 590 80 129 0 381 -29 510
-59 163 -37 322 -93 203 -70 -44 8 -66 -1 -54 -20 4 -6 13 -11 21 -11 8 0 26
-5 42 -11 l28 -10 -25 -20 c-21 -16 -23 -20 -10 -29 8 -5 30 -10 48 -10 50 0
101 -27 95 -49 -3 -11 -1 -21 4 -24 16 -10 68 9 71 26 4 19 -71 76 -110 84
-17 3 -28 12 -28 22 0 9 -5 22 -12 29 -17 17 -14 16 91 -23 51 -19 98 -32 103
-29 16 10 -20 40 -82 68 -33 15 -62 31 -65 37 -4 5 -11 7 -16 4 -5 -4 -18 0
-30 8 -25 18 -9 31 23 18 13 -5 55 -19 93 -32 82 -27 162 -61 189 -82 18 -13
18 -14 -5 -13 -17 1 -25 -5 -27 -21 -4 -25 11 -27 303 -43 509 -28 532 -30
680 -51 245 -36 371 -76 491 -154 64 -43 73 -54 94 -118 14 -43 21 -52 41 -52
21 0 24 4 21 30 -26 237 -406 367 -1147 391 -228 7 -227 7 -380 79 -361 170
-793 267 -1170 263 -93 -1 -190 -3 -215 -4z"/>
</g>
</svg>
